<?xml version="1.0" standalone="no"?>
<!DOCTYPE svg PUBLIC "-//W3C//DTD SVG 20010904//EN"
 "http://www.w3.org/TR/2001/REC-SVG-20010904/DTD/svg10.dtd">
<svg version="1.0" xmlns="http://www.w3.org/2000/svg"
 width="1024.000000pt" height="1024.000000pt" viewBox="0 0 1024.000000 1024.000000"
 preserveAspectRatio="xMidYMid meet">

<g transform="translate(0.000000,1024.000000) scale(0.100000,-0.100000)"
fill="#000000" stroke="none">
<path d="M431 9373 c-24 -30 -27 -53 -7 -53 7 0 19 -6 25 -13 16 -20 -17 -48
-47 -40 -12 3 -19 9 -16 14 3 5 3 9 0 9 -8 0 -80 -110 -75 -113 35 -27 71 -48
81 -46 25 3 39 -1 33 -10 -10 -16 261 -188 288 -183 4 1 7 -4 7 -10 1 -7 119
-86 263 -176 144 -90 359 -224 477 -299 235 -148 580 -366 757 -477 356 -224
438 -276 533 -336 58 -37 312 -197 565 -356 253 -159 481 -302 507 -319 26
-16 73 -46 105 -66 112 -71 800 -504 983 -619 102 -64 320 -202 485 -305 165
-104 433 -273 597 -376 163 -103 311 -190 329 -194 41 -9 81 -34 74 -46 -8
-12 97 -80 126 -81 13 -1 29 -6 36 -10 7 -6 20 -5 32 1 28 15 66 7 65 -13 -1
-9 3 -16 9 -16 6 0 7 -3 3 -7 -8 -8 -14 -10 -48 -12 -17 -1 -13 -6 23 -31 44
-30 65 -38 54 -21 -3 5 -1 12 5 16 6 4 7 12 3 18 -4 8 -1 7 9 -1 14 -11 16
-10 11 7 -7 28 63 71 114 71 47 -1 100 -27 126 -62 23 -30 36 -135 16 -122 -8
5 -10 2 -7 -8 4 -8 -4 -27 -17 -42 -20 -23 -26 -26 -38 -15 -12 11 -11 16 5
33 10 11 18 24 18 29 0 5 -12 -3 -27 -19 l-28 -29 25 -21 c21 -17 170 -113
232 -149 61 -36 125 -76 208 -130 83 -54 568 -360 858 -541 109 -68 906 -570
1022 -644 41 -26 143 -90 225 -142 83 -52 192 -120 243 -152 51 -33 94 -57 96
-55 2 2 34 51 70 109 51 81 63 107 53 116 -11 11 -430 276 -1152 729 -165 104
-385 242 -490 308 -104 66 -305 192 -445 280 -140 88 -293 185 -339 214 -59
38 -86 51 -91 42 -4 -6 -13 -8 -19 -5 -6 4 -8 12 -5 18 4 7 2 8 -5 4 -6 -4 -9
-12 -6 -17 4 -5 -1 -9 -9 -9 -16 0 -18 5 -20 45 -1 13 -35 41 -108 88 -90 58
-110 67 -123 57 -23 -19 -19 -85 7 -110 26 -24 84 -27 114 -6 17 13 23 12 44
-6 14 -11 18 -18 9 -15 -11 4 -16 0 -15 -11 1 -12 -14 -21 -54 -31 -52 -13
-59 -13 -103 7 -34 15 -45 25 -41 37 5 11 2 14 -12 8 -14 -5 -16 -3 -11 11 4
9 3 15 -2 11 -13 -7 -24 49 -16 84 3 16 13 35 21 42 28 23 100 -26 -791 534
-181 114 -346 217 -365 230 -19 13 -71 45 -115 72 -91 56 -854 537 -1075 678
-80 51 -159 100 -175 109 -17 9 -43 25 -60 36 -59 38 -73 44 -88 32 -10 -9
-14 -8 -14 3 0 8 4 12 9 9 4 -3 8 -1 8 3 0 5 -89 64 -197 132 -109 69 -281
177 -383 241 -102 65 -309 195 -460 290 -151 95 -297 187 -325 205 -27 18
-147 93 -265 167 -435 274 -1147 722 -1215 765 -38 24 -133 83 -210 132 -524
331 -637 401 -651 401 -8 0 -25 11 -37 23 -12 13 -32 29 -44 36 -19 10 -22 9
-17 -4 4 -9 3 -15 -2 -13 -5 2 -9 -1 -9 -7 0 -5 3 -9 8 -7 4 1 7 -5 7 -13 0
-8 6 -15 13 -15 16 0 25 -8 125 -111 l73 -76 -30 -1 c-31 -1 -42 12 -18 21 9
4 9 6 0 6 -6 1 -15 -3 -18 -9 -10 -16 -28 -12 -22 5 4 8 1 17 -5 21 -7 4 -8 3
-4 -4 4 -7 3 -12 -1 -12 -14 0 -87 79 -80 86 10 10 -31 37 -43 29 -6 -4 -7
-13 -2 -23 13 -27 15 -92 2 -92 -6 0 -9 4 -5 9 3 5 1 12 -4 15 -15 10 -6 -25
10 -36 11 -7 9 -9 -8 -5 -12 3 -24 0 -26 -6 -4 -14 -27 1 -27 19 0 8 7 14 15
14 8 0 15 4 15 10 0 5 -7 7 -15 4 -13 -5 -15 7 -15 80 0 78 2 86 22 97 l23 12
-23 10 c-13 6 -21 16 -18 22 6 15 -3 27 -36 48 -26 16 -27 16 -47 -10z m213
-118 c11 -8 17 -17 14 -21 -7 -6 -48 17 -48 28 0 12 13 9 34 -7z m-49 -65 c3
-5 2 -10 -4 -10 -5 0 -13 5 -16 10 -3 6 -2 10 4 10 5 0 13 -4 16 -10z m-135
-75 c0 -9 -6 -12 -15 -8 -9 3 -13 8 -11 11 3 3 0 12 -7 20 -10 13 -9 14 11 3
12 -6 22 -18 22 -26z m3915 -2275 c-3 -5 -11 -10 -16 -10 -6 0 -7 5 -4 10 3 6
11 10 16 10 6 0 7 -4 4 -10z m148 -23 c3 -8 -1 -14 -8 -14 -7 0 -11 6 -8 14 3
7 6 13 8 13 2 0 5 -6 8 -13z m2045 -1512 c2 -35 1 -38 -11 -23 -10 12 -17 14
-24 7 -8 -8 -15 -5 -23 12 -11 19 -10 24 6 36 31 23 49 12 52 -32z m646 -440
c-4 -8 -11 -12 -16 -9 -6 4 -5 10 3 15 19 12 19 11 13 -6z m66 11 c0 -2 -7 -7
-16 -10 -8 -3 -12 -2 -9 4 6 10 25 14 25 6z m56 -16 c0 -12 -4 -16 -9 -11 -5
5 -6 14 -3 20 10 15 12 14 12 -9z m36 -32 c-10 -10 -10 -8 -2 37 1 6 4 2 7 -9
3 -10 0 -23 -5 -28z m88 12 c0 -5 -10 -10 -22 -9 -22 0 -22 1 -3 9 11 5 21 9
23 9 1 1 2 -3 2 -9z m-140 -35 c-7 -8 -16 -15 -21 -15 -5 0 -1 8 9 18 20 22
31 19 12 -3z m85 -13 c-3 -3 -11 0 -18 7 -9 10 -8 11 6 5 10 -3 15 -9 12 -12z"/>
<path d="M590 9226 c0 -2 7 -9 15 -16 9 -7 15 -8 15 -2 0 5 -7 12 -15 16 -8 3
-15 4 -15 2z"/>
<path d="M640 9186 c0 -2 8 -10 18 -17 15 -13 16 -12 3 4 -13 16 -21 21 -21
13z"/>
<path d="M1330 9052 c0 -4 84 -60 187 -124 l187 -118 2784 0 c2650 0 2784 1
2771 18 -13 15 -12 16 3 3 10 -7 27 -11 38 -8 11 3 18 1 14 -4 -3 -5 387 -9
965 -9 l971 0 0 -745 0 -745 26 0 27 0 -27 -25 c-24 -22 -26 -31 -26 -99 0
-73 1 -75 38 -111 35 -34 36 -35 11 -31 -14 2 -31 1 -37 -3 -9 -5 -11 -377
-10 -1502 l3 -1494 100 -63 c55 -34 108 -67 118 -73 16 -9 17 14 17 435 0 420
-1 445 -17 440 -17 -5 -17 -5 0 9 18 15 24 57 7 57 -5 0 -10 8 -10 18 0 14 2
15 10 2 7 -10 10 7 10 59 0 61 -2 72 -15 67 -13 -5 -15 14 -13 137 l2 142 6
-125 5 -125 5 140 c5 138 5 140 -19 161 -21 18 -22 22 -10 42 8 12 19 22 26
22 10 0 13 346 13 1730 0 1642 -1 1729 -17 1724 -17 -5 -17 -5 0 6 18 11 25
66 7 55 -5 -3 -10 1 -10 10 0 9 5 13 10 10 6 -4 10 18 10 59 l0 65 -4080 -1
c-2244 0 -4080 -3 -4080 -6z m5104 -85 c3 3 6 1 6 -5 0 -16 -12 -15 -36 4 -18
15 -18 15 2 5 12 -6 24 -7 28 -4z m-3481 -12 c-12 -8 -24 -25 -26 -38 -4 -22
-4 -22 -6 0 -1 23 23 53 42 53 6 0 2 -7 -10 -15z m72 5 c3 -5 2 -10 -4 -10 -5
0 -13 5 -16 10 -3 6 -2 10 4 10 5 0 13 -4 16 -10z m464 -42 c-1 -55 -5 -50
-11 15 -2 20 0 37 4 37 4 0 7 -24 7 -52z m2581 31 c0 -13 4 -18 13 -13 8 5 8
2 -2 -9 -18 -22 -18 -22 -23 13 -3 17 -1 30 4 30 4 0 8 -9 8 -21z m293 6 c-12
-8 -24 -25 -26 -38 -4 -22 -4 -22 -6 0 -1 23 23 53 42 53 6 0 2 -7 -10 -15z
m537 -45 c0 -33 -3 -60 -7 -60 -5 0 -6 27 -5 60 5 77 12 77 12 0z m-4061 8
c-16 -32 -17 -32 -15 -4 0 14 7 26 14 26 10 0 10 -5 1 -22z m248 -3 c-7 -13
-14 -20 -15 -14 -2 5 2 16 8 24 18 21 20 18 7 -10z m295 12 c-6 -7 -16 -24
-22 -38 l-11 -24 6 25 c4 14 7 31 7 38 1 6 8 12 16 12 11 0 12 -3 4 -13z m168
3 c0 -5 -7 -7 -15 -4 -8 4 -15 8 -15 10 0 2 7 4 15 4 8 0 15 -4 15 -10z m118
-30 c2 -19 9 -38 15 -42 8 -5 6 -8 -5 -8 -14 0 -18 8 -18 39 0 29 -5 41 -17
45 -14 4 -14 4 2 3 15 -2 21 -11 23 -37z m92 36 c0 -2 -11 -6 -25 -8 -13 -3
-22 -1 -19 3 5 9 44 13 44 5z m43 -3 c-7 -2 -9 -12 -6 -21 6 -18 5 -17 -14 8
-10 13 -8 16 10 17 12 0 17 -1 10 -4z m55 -4 c-10 -5 -18 -18 -19 -27 0 -11
-2 -12 -6 -4 -6 15 14 42 31 42 6 0 3 -5 -6 -11z m79 5 c-3 -3 -12 -4 -19 -1
-8 3 -5 6 6 6 11 1 17 -2 13 -5z m149 -14 c0 -12 -4 -16 -9 -11 -5 5 -6 14 -3
20 10 15 12 14 12 -9z m2155 -20 c-22 -50 -27 -55 -35 -35 -3 9 -2 14 2 11 5
-3 16 10 25 29 23 49 30 44 8 -5z m376 34 c-3 -3 -12 -4 -19 -1 -8 3 -5 6 6 6
11 1 17 -2 13 -5z m341 -25 c-3 -8 -7 -3 -11 10 -4 17 -3 21 5 13 5 -5 8 -16
6 -23z m109 25 c-3 -3 -12 -4 -19 -1 -8 3 -5 6 6 6 11 1 17 -2 13 -5z m140
-40 c0 -24 -3 -41 -7 -39 -5 3 -6 14 -3 24 3 10 0 28 -6 38 -7 15 -7 20 3 20
9 0 13 -15 13 -43z m238 36 c3 -6 -1 -7 -9 -4 -18 7 -21 14 -7 14 6 0 13 -4
16 -10z m-3838 -22 c-3 -8 -6 -5 -6 6 -1 11 2 17 5 13 3 -3 4 -12 1 -19z
m2961 -9 c-3 -8 -7 -3 -11 10 -4 17 -3 21 5 13 5 -5 8 -16 6 -23z m808 16 c-4
-12 3 -15 32 -16 l37 -2 -35 -6 c-19 -4 -39 -4 -43 -1 -8 7 1 40 10 40 3 0 3
-7 -1 -15z m-4626 -19 c0 -7 -10 -21 -22 -32 l-23 -19 19 22 c10 12 16 29 12
38 -3 9 -2 13 4 10 6 -3 10 -12 10 -19z m507 -23 c-3 -10 -5 -2 -5 17 0 19 2
27 5 18 2 -10 2 -26 0 -35z m3410 15 c-3 -7 -5 -2 -5 12 0 14 2 19 5 13 2 -7
2 -19 0 -25z m410 -5 c-3 -10 -5 -4 -5 12 0 17 2 24 5 18 2 -7 2 -21 0 -30z
m49 6 c1 -25 -1 -28 -8 -15 -5 10 -7 24 -4 32 8 21 11 17 12 -17z m-4123 14
c-7 -2 -19 -2 -25 0 -7 3 -2 5 12 5 14 0 19 -2 13 -5z m157 -3 c0 -5 -8 -10
-17 -10 -15 0 -16 2 -3 10 19 12 20 12 20 0z m3273 3 c-7 -2 -19 -2 -25 0 -7
3 -2 5 12 5 14 0 19 -2 13 -5z m-3770 -23 c3 -11 1 -18 -4 -14 -5 3 -9 12 -9
20 0 20 7 17 13 -6z m534 -2 c-3 -8 -6 -5 -6 6 -1 11 2 17 5 13 3 -3 4 -12 1
-19z m846 15 c-7 -2 -19 -2 -25 0 -7 3 -2 5 12 5 14 0 19 -2 13 -5z m2037 -18
c14 -19 14 -19 -2 -6 -10 7 -18 18 -18 24 0 6 1 8 3 6 1 -2 9 -13 17 -24z
m458 18 c-10 -2 -28 -2 -40 0 -13 2 -5 4 17 4 22 1 32 -1 23 -4z m-3725 -37
c-3 -4 -9 -2 -14 5 -13 22 -11 31 5 17 8 -7 12 -17 9 -22z m147 2 c0 -12 -6
-9 -26 13 -19 22 -19 22 4 8 12 -8 22 -17 22 -21z m80 23 c0 -5 -7 -12 -16
-15 -14 -5 -15 -4 -4 9 14 17 20 19 20 6z m933 -5 c3 -8 16 -16 29 -19 21 -4
21 -4 2 -6 -11 0 -29 8 -39 19 -10 11 -13 20 -8 20 6 0 13 -6 16 -14z m2391
-15 c-2 -3 -12 3 -22 13 -16 17 -16 18 5 5 12 -7 20 -15 17 -18z m86 21 c0 -4
-10 -13 -22 -21 -23 -14 -23 -14 -4 8 20 22 26 25 26 13z m163 -12 c3 -11 1
-20 -4 -20 -5 0 -9 9 -9 20 0 11 2 20 4 20 2 0 6 -9 9 -20z m-3269 -5 c3 -8 1
-15 -4 -15 -6 0 -10 7 -10 15 0 8 2 15 4 15 2 0 6 -7 10 -15z m456 -5 c0 -5
-2 -10 -4 -10 -3 0 -8 5 -11 10 -3 6 -1 10 4 10 6 0 11 -4 11 -10z m325 0 c-3
-5 -12 -10 -18 -10 -7 0 -6 4 3 10 19 12 23 12 15 0z m2627 -12 c-7 -7 -12 -8
-12 -2 0 14 12 26 19 19 2 -3 -1 -11 -7 -17z m523 4 c-3 -3 -11 0 -18 7 -9 10
-8 11 6 5 10 -3 15 -9 12 -12z m60 0 c-3 -3 -11 0 -18 7 -9 10 -8 11 6 5 10
-3 15 -9 12 -12z m160 8 c3 -5 1 -10 -4 -10 -6 0 -11 5 -11 10 0 6 2 10 4 10
3 0 8 -4 11 -10z m-3728 -6 c-3 -3 -12 -4 -19 -1 -8 3 -5 6 6 6 11 1 17 -2 13
-5z m3190 0 c-3 -3 -12 -4 -19 -1 -8 3 -5 6 6 6 11 1 17 -2 13 -5z m70 0 c-3
-3 -12 -4 -19 -1 -8 3 -5 6 6 6 11 1 17 -2 13 -5z m66 -1 c-7 -2 -19 -2 -25 0
-7 3 -2 5 12 5 14 0 19 -2 13 -5z m-336 -29 c-3 -3 -12 -4 -19 -1 -8 3 -5 6 6
6 11 1 17 -2 13 -5z"/>
<path d="M752 6983 c3 -1498 5 -1708 18 -1705 11 3 11 -1 -3 -16 -14 -15 -17
-38 -17 -114 0 -81 3 -99 21 -122 l20 -26 -20 0 c-20 0 -21 -1 -21 -725 l0
-725 4080 0 c2244 0 4080 3 4080 8 0 4 -21 19 -48 35 -26 15 -175 108 -332
207 -157 99 -400 253 -540 341 -140 88 -347 219 -460 290 -113 71 -252 159
-310 195 -58 36 -140 88 -183 115 -43 27 -80 49 -83 49 -2 0 -13 8 -24 18 -11
9 -24 17 -28 17 -4 0 -23 11 -42 25 -89 64 -237 150 -258 150 -30 0 -158 -135
-154 -163 2 -22 -24 -46 -50 -47 -9 0 -38 -24 -65 -54 -26 -29 -102 -111 -168
-182 -66 -71 -162 -175 -214 -232 -52 -56 -98 -102 -102 -102 -6 0 -118 132
-346 409 -37 45 -406 490 -548 661 -485 585 -785 947 -990 1194 -132 159 -250
301 -262 315 -20 24 -23 25 -35 9 -7 -9 -130 -157 -273 -328 -143 -172 -307
-370 -365 -440 -121 -146 -474 -573 -530 -640 -21 -25 -140 -169 -266 -320
-125 -151 -280 -338 -344 -415 -408 -492 -565 -681 -635 -767 l-80 -98 -92 0
-93 0 -1 1518 c0 834 0 1567 1 1628 l1 111 -26 -4 c-21 -5 -25 -2 -25 20 0 14
6 28 12 30 10 4 10 6 1 6 -10 1 -13 27 -13 96 0 84 2 95 18 96 14 0 14 2 -3 9
-18 8 -17 9 8 9 24 1 27 5 27 33 0 25 -3 29 -12 20 -9 -9 -17 -7 -35 10 -26
24 -30 43 -8 34 8 -3 15 -1 15 4 0 6 -5 10 -12 10 -6 0 -3 6 7 14 11 8 25 12
32 9 11 -4 13 100 13 545 l0 551 -113 70 c-63 39 -117 71 -120 71 -4 0 -6
-768 -5 -1707z m211 -94 c-8 -29 -13 -23 -13 14 0 22 3 28 9 18 5 -7 6 -22 4
-32z m2 -38 c3 -5 1 -12 -5 -16 -5 -3 -10 1 -10 9 0 18 6 21 15 7z m1735
-1466 c0 -7 5 -15 11 -17 23 -8 -14 -48 -44 -48 -16 0 -26 4 -22 10 3 6 1 10
-4 10 -6 0 -11 9 -11 20 0 11 5 20 11 20 5 0 8 4 5 9 -4 5 0 11 6 14 20 6 48
-4 48 -18z m229 13 c20 -7 42 -19 49 -25 13 -13 12 -14 -7 -17 -5 0 -13 -5
-18 -10 -5 -5 -3 -6 5 -2 6 4 12 2 12 -4 0 -13 -68 -3 -89 14 -11 8 -13 8 -7
-1 4 -9 1 -13 -9 -13 -11 0 -15 5 -11 16 3 8 2 13 -3 9 -5 -3 -12 -19 -16 -35
-4 -17 -11 -30 -17 -30 -6 0 3 -13 20 -30 18 -16 37 -30 43 -30 19 0 83 -33
102 -52 9 -9 22 -30 27 -45 9 -26 9 -27 -5 -9 -17 23 -20 14 -4 -15 15 -29 2
-57 -43 -90 -41 -29 -65 -38 -53 -20 3 6 -7 6 -27 0 -36 -10 -55 -6 -104 23
-21 12 -31 25 -27 34 6 15 18 10 18 -7 0 -5 4 -9 9 -8 5 0 13 -5 17 -13 5 -8
9 -9 9 -2 0 6 -7 17 -15 24 -17 14 -20 30 -4 30 5 0 8 -4 4 -9 -3 -6 3 -10 12
-11 10 0 41 -3 69 -6 53 -6 70 3 75 41 3 24 -27 93 -33 75 -5 -15 -105 29
-132 59 -15 16 -16 23 -5 43 11 20 10 21 -2 11 -12 -10 -15 -8 -16 8 -1 12 3
17 9 13 7 -4 8 -2 4 4 -4 7 -2 20 3 29 6 10 11 14 11 9 0 -4 8 2 18 14 9 12
33 25 52 30 19 4 37 8 39 9 3 1 21 -5 40 -11z m1059 -104 c0 -58 2 -108 5
-110 2 -2 12 5 22 16 14 16 21 17 39 8 19 -10 20 -10 7 5 -9 12 -10 17 -2 17
7 0 9 5 5 12 -5 8 -2 9 10 5 9 -4 14 -3 11 2 -8 15 16 25 63 27 l43 2 -23 -21
c-13 -12 -43 -38 -66 -57 -23 -19 -42 -40 -42 -46 0 -7 16 -26 35 -43 19 -17
35 -34 35 -38 0 -4 -5 -2 -12 5 -7 7 -16 12 -22 12 -5 0 -2 -6 9 -13 11 -9 15
-19 11 -28 -4 -8 -1 -6 7 4 17 21 31 22 24 2 -4 -8 -1 -17 5 -21 7 -4 8 -3 4
4 -12 20 -1 13 24 -13 l23 -25 -42 0 c-34 0 -42 3 -38 14 4 10 1 13 -9 9 -12
-4 -18 6 -16 28 1 4 -6 6 -14 5 -9 0 -23 10 -32 24 -15 22 -15 23 -1 13 13
-10 16 -10 16 1 0 9 -9 13 -24 11 -16 -1 -22 2 -19 10 3 8 -2 11 -15 8 -15 -4
-19 -15 -20 -57 -1 -28 -1 -54 0 -58 0 -5 -15 -8 -34 -8 l-35 0 0 200 0 200
34 0 35 0 -1 -106z m-831 21 c5 -36 2 -34 41 -37 21 -1 32 -8 33 -18 0 -10 3
-9 9 5 7 17 9 15 9 -12 1 -18 -4 -33 -10 -33 -5 0 -7 5 -4 10 3 6 1 10 -4 10
-6 0 -11 -4 -11 -10 0 -5 -15 -10 -32 -10 l-33 0 5 -73 c4 -59 9 -76 29 -96
16 -16 22 -19 18 -8 -5 12 -1 17 12 17 18 0 31 -18 31 -45 0 -18 -67 -17 -102
1 -39 20 -60 76 -56 149 3 58 2 60 -22 61 -55 2 -60 4 -60 29 0 14 3 24 8 24
4 -1 22 -1 40 0 30 1 32 3 32 37 0 34 1 35 32 32 26 -3 32 -8 35 -33z m-497
-288 c3 -3 4 53 2 124 -4 126 -3 129 18 129 20 0 21 -4 19 -140 -1 -139 -1
-140 -24 -140 -13 0 -26 7 -29 16 -3 9 -5 73 -4 142 l2 127 5 -127 c3 -69 8
-129 11 -131z m852 227 c47 -30 69 -71 65 -121 -5 -50 -27 -98 -39 -81 -6 10
-8 9 -8 -2 0 -25 -56 -53 -79 -40 -26 13 -40 13 -21 -1 11 -8 6 -9 -23 -5
-100 13 -158 123 -107 201 49 75 139 95 212 49z m318 6 c22 -11 40 -24 40 -29
0 -9 -31 -38 -36 -33 -2 2 -20 10 -40 18 -33 14 -38 14 -69 -5 -24 -14 -35
-16 -38 -8 -2 7 -4 -13 -5 -43 -1 -62 9 -80 55 -99 29 -12 36 -11 66 7 32 18
35 18 56 3 l22 -17 -25 -23 c-47 -44 -155 -33 -210 21 -36 37 -44 122 -13 153
9 9 20 22 24 29 13 21 65 45 101 46 18 0 51 -9 72 -20z m-860 -357 c-8 -3 -24
-13 -35 -22 -20 -16 -20 -16 -1 7 11 12 26 22 35 21 14 0 14 -1 1 -6z m60 -2
c0 -5 -9 -7 -20 -4 -11 3 -20 7 -20 9 0 2 9 4 20 4 11 0 20 -4 20 -9z m190
-27 c0 -2 -7 -4 -15 -4 -8 0 -15 4 -15 10 0 5 7 7 15 4 8 -4 15 -8 15 -10z
m45 6 c3 -5 -1 -10 -10 -10 -9 0 -13 5 -10 10 3 6 8 10 10 10 2 0 7 -4 10 -10z
m225 -40 c0 -27 -3 -50 -7 -50 -5 0 -6 22 -5 50 5 65 12 65 12 0z m3125 40 c3
-5 1 -10 -4 -10 -6 0 -11 5 -11 10 0 6 2 10 4 10 3 0 8 -4 11 -10z m54 -17 c0
-25 -1 -25 -8 -8 -5 11 -7 23 -4 28 8 14 13 7 12 -20z m-3929 -4 c7 -11 9 -23
6 -27 -3 -3 -6 0 -6 6 0 6 -7 18 -16 26 -8 9 -11 16 -5 16 6 0 15 -9 21 -21z
m44 6 c-4 -8 -8 -15 -10 -15 -2 0 -4 7 -4 15 0 8 4 15 10 15 5 0 7 -7 4 -15z
m63 9 c-3 -3 -12 -4 -19 -1 -8 3 -5 6 6 6 11 1 17 -2 13 -5z m476 -11 c-3 -7
-6 -13 -8 -13 -2 0 -5 6 -8 13 -3 8 1 14 8 14 7 0 11 -6 8 -14z m224 -14 c1
-19 1 -20 -4 -4 -3 11 -10 24 -17 28 -7 6 -6 7 4 4 8 -2 16 -14 17 -28z m61
-5 c-3 -14 -5 -12 -10 9 -3 19 -2 25 4 19 6 -6 8 -18 6 -28z m60 0 c-3 -14 -5
-12 -10 9 -3 19 -2 25 4 19 6 -6 8 -18 6 -28z m55 16 c-10 -11 -19 -20 -21
-20 -1 0 2 9 8 20 6 11 15 20 20 20 6 0 2 -9 -7 -20z m82 -26 c0 -25 -4 -43
-10 -41 -5 2 -9 18 -7 34 2 22 -2 34 -14 41 -15 8 -14 10 7 10 22 0 24 -5 24
-44z m121 24 c0 -10 -1 -18 -3 -18 -1 0 -7 8 -12 18 -7 13 -6 19 2 19 7 0 13
-9 13 -19z m47 7 c-3 -9 -8 -14 -10 -11 -3 3 -2 9 2 15 9 16 15 13 8 -4z
m2530 8 c-7 -2 -13 -14 -14 -26 0 -12 -3 -16 -6 -9 -7 18 4 42 19 41 10 0 10
-2 1 -6z m66 -27 c-3 -3 -11 5 -18 17 -13 21 -12 21 5 5 10 -10 16 -20 13 -22z
m158 28 c-3 -3 -12 -4 -19 -1 -8 3 -5 6 6 6 11 1 17 -2 13 -5z m-4070 -26 c-3
-8 -6 -5 -6 6 -1 11 2 17 5 13 3 -3 4 -12 1 -19z m503 -4 c0 -8 -9 -14 -22
-13 -19 1 -19 2 -5 6 11 3 16 11 13 19 -3 9 -1 12 4 9 6 -3 10 -13 10 -21z
m3447 -21 c-3 -10 -5 -4 -5 12 0 17 2 24 5 18 2 -7 2 -21 0 -30z m-2562 17
c-3 -5 -21 -9 -38 -9 l-32 2 35 7 c19 4 36 8 38 9 2 0 0 -3 -3 -9z m-1232 -23
c4 3 7 4 7 0 0 -18 -21 -14 -30 5 -10 21 -10 21 3 6 8 -10 17 -15 20 -11z
m1154 16 c-4 -3 -1 -13 6 -22 11 -14 10 -14 -5 -2 -16 12 -16 31 -1 31 4 0 3
-3 0 -7z m-1304 -17 c3 -8 0 -17 -7 -19 -10 -4 -12 1 -9 14 6 23 9 24 16 5z
m540 -6 c3 -11 1 -18 -4 -14 -5 3 -9 12 -9 20 0 20 7 17 13 -6z m54 -12 c-3
-7 -5 -2 -5 12 0 14 2 19 5 13 2 -7 2 -19 0 -25z m3416 12 c3 -11 1 -20 -4
-20 -5 0 -9 9 -9 20 0 11 2 20 4 20 2 0 6 -9 9 -20z m86 -12 c-7 -13 -14 -18
-16 -11 -3 7 2 19 9 27 18 20 22 12 7 -16z m-4029 2 c-8 -6 -24 -9 -35 -9
l-20 1 20 5 c11 3 24 9 29 14 5 5 12 6 15 3 3 -3 -1 -9 -9 -14z m820 5 c0 -8
-4 -15 -10 -15 -5 0 -7 7 -4 15 4 8 8 15 10 15 2 0 4 -7 4 -15z m64 0 c3 -9 0
-15 -9 -15 -9 0 -12 6 -9 15 4 8 7 15 9 15 2 0 5 -7 9 -15z m316 11 c0 -2 -7
-7 -16 -10 -8 -3 -12 -2 -9 4 6 10 25 14 25 6z m2595 -19 c19 -4 19 -5 -1 -6
-12 0 -28 7 -35 17 -12 15 -12 16 1 6 8 -7 24 -14 35 -17z m-3510 3 c-3 -5
-18 -9 -33 -9 l-27 1 30 8 c17 4 31 8 33 9 2 0 0 -3 -3 -9z m128 -2 c-2 -5
-15 -8 -28 -8 -13 0 -26 3 -28 8 -3 4 10 7 28 7 18 0 31 -3 28 -7z m207 8 c0
-3 -4 -8 -10 -11 -5 -3 -10 -1 -10 4 0 6 5 11 10 11 6 0 10 -2 10 -4z m419
-12 c10 -9 -35 -3 -49 6 -11 8 -7 9 15 4 17 -4 32 -8 34 -10z m96 -2 c-3 -3
-11 0 -18 7 -9 10 -8 11 6 5 10 -3 15 -9 12 -12z m220 8 c3 -5 1 -10 -4 -10
-6 0 -11 5 -11 10 0 6 2 10 4 10 3 0 8 -4 11 -10z m2815 0 c0 -5 -5 -10 -11
-10 -5 0 -7 5 -4 10 3 6 8 10 11 10 2 0 4 -4 4 -10z m-143 -36 c-3 -3 -12 -4
-19 -1 -8 3 -5 6 6 6 11 1 17 -2 13 -5z"/>
<path d="M2662 5375 c-7 -8 -9 -15 -4 -15 5 0 15 7 22 15 16 19 -1 19 -18 0z"/>
<path d="M2848 5383 c7 -3 16 -2 19 1 4 3 -2 6 -13 5 -11 0 -14 -3 -6 -6z"/>
<path d="M2918 5373 c7 -3 16 -2 19 1 4 3 -2 6 -13 5 -11 0 -14 -3 -6 -6z"/>
<path d="M2806 5334 c-5 -14 -4 -15 9 -4 17 14 19 20 6 20 -5 0 -12 -7 -15
-16z"/>
<path d="M2781 5267 c-13 -21 -12 -21 5 -5 10 10 16 20 13 22 -3 3 -11 -5 -18
-17z"/>
<path d="M2938 5193 c10 -4 10 -8 1 -19 -7 -8 -7 -14 -1 -14 12 0 23 26 15 34
-4 3 -11 6 -17 5 -6 0 -5 -3 2 -6z"/>
<path d="M2971 5114 c0 -11 3 -14 6 -6 3 7 2 16 -1 19 -3 4 -6 -2 -5 -13z"/>
<path d="M2941 5054 c0 -11 3 -14 6 -6 3 7 2 16 -1 19 -3 4 -6 -2 -5 -13z"/>
<path d="M3931 5374 c0 -11 3 -14 6 -6 3 7 2 16 -1 19 -3 4 -6 -2 -5 -13z"/>
<path d="M4140 5259 c0 -5 5 -7 10 -4 6 3 10 8 10 11 0 2 -4 4 -10 4 -5 0 -10
-5 -10 -11z"/>
<path d="M4106 5235 c-11 -8 -17 -17 -14 -20 2 -3 13 4 23 15 21 23 18 25 -9
5z"/>
<path d="M3931 5024 c0 -11 3 -14 6 -6 3 7 2 16 -1 19 -3 4 -6 -2 -5 -13z"/>
<path d="M3184 5263 c13 -3 15 -7 7 -13 -10 -5 -9 -9 2 -13 10 -4 14 0 13 11
-2 9 -11 18 -22 19 -19 2 -19 2 0 -4z"/>
<path d="M3033 5243 c9 -2 23 -2 30 0 6 3 -1 5 -18 5 -16 0 -22 -2 -12 -5z"/>
<path d="M3120 5061 c0 -6 4 -13 10 -16 6 -3 7 1 4 9 -7 18 -14 21 -14 7z"/>
<path d="M3168 5023 c7 -3 16 -2 19 1 4 3 -2 6 -13 5 -11 0 -14 -3 -6 -6z"/>
<path d="M3430 5250 c-9 -6 -10 -10 -3 -10 6 0 15 5 18 10 8 12 4 12 -15 0z"/>
<path d="M3325 5221 c-10 -17 17 -24 31 -7 8 9 9 11 2 6 -16 -13 -31 -13 -23
0 3 6 4 10 1 10 -3 0 -7 -4 -11 -9z"/>
<path d="M3414 5220 c-45 -10 -52 -17 -64 -61 -9 -34 -9 -44 4 -58 18 -20 21
-35 6 -26 -5 3 -10 1 -10 -5 0 -7 8 -9 21 -5 12 4 19 3 16 -2 -3 -5 7 -8 21
-7 15 1 33 -4 41 -10 11 -8 13 -8 7 2 -4 7 -2 12 7 12 26 0 49 38 51 84 0 25
7 51 14 58 6 6 12 16 12 22 0 5 -9 -1 -19 -13 -16 -18 -21 -19 -28 -8 -11 18
-41 25 -79 17z"/>
<path d="M3325 5180 c-3 -5 -1 -10 4 -10 6 0 11 5 11 10 0 6 -2 10 -4 10 -3 0
-8 -4 -11 -10z"/>
<path d="M3295 5169 c-4 -6 -5 -12 -2 -15 2 -3 7 2 10 11 7 17 1 20 -8 4z"/>
<path d="M3321 5144 c0 -11 3 -14 6 -6 3 7 2 16 -1 19 -3 4 -6 -2 -5 -13z"/>
<path d="M3548 5136 c-3 -14 -2 -30 2 -36 4 -6 7 5 8 25 2 40 -4 46 -10 11z"/>
<path d="M3310 5090 c0 -5 5 -10 11 -10 5 0 7 5 4 10 -3 6 -8 10 -11 10 -2 0
-4 -4 -4 -10z"/>
<path d="M3355 5040 c-7 -12 19 -24 37 -17 7 3 3 6 -10 6 -13 1 -20 5 -17 11
3 6 4 10 1 10 -3 0 -8 -5 -11 -10z"/>
<path d="M3830 5231 c-24 -7 -24 -7 -3 -13 14 -4 24 -1 27 8 3 8 4 14 3 13 -1
-1 -13 -4 -27 -8z"/>
<path d="M3651 5164 c0 -11 3 -14 6 -6 3 7 2 16 -1 19 -3 4 -6 -2 -5 -13z"/>
<path d="M3626 5107 c3 -10 9 -15 12 -12 3 3 0 11 -7 18 -10 9 -11 8 -5 -6z"/>
<path d="M3810 5054 c-16 -10 -18 -13 -5 -8 11 4 28 7 37 8 9 0 14 4 12 8 -7
11 -15 10 -44 -8z"/>
<path d="M5986 8254 c-121 -29 -258 -130 -320 -236 -66 -113 -90 -261 -62
-381 17 -72 70 -187 86 -187 6 0 10 -6 10 -14 0 -20 106 -116 128 -116 10 0
28 -11 39 -24 25 -28 125 -63 208 -71 72 -8 182 13 260 49 144 66 253 200 290
358 20 86 19 150 -5 244 -72 279 -352 446 -634 378z"/>
<path d="M9250 7070 c0 -5 5 -10 11 -10 5 0 7 5 4 10 -3 6 -8 10 -11 10 -2 0
-4 -4 -4 -10z"/>
<path d="M7226 5698 c-21 -24 -64 -70 -95 -103 -31 -34 -69 -75 -86 -93 l-29
-32 24 -18 c37 -26 273 -174 286 -179 7 -3 10 5 7 20 -4 19 0 26 14 30 16 4
16 5 1 6 -13 1 -18 9 -18 29 0 37 4 39 40 34 29 -4 30 -6 30 -58 0 -36 -4 -54
-12 -54 -10 0 -10 -2 -2 -8 7 -4 14 -18 15 -32 6 -37 33 -36 76 4 33 29 46 35
80 33 23 -1 39 -5 36 -10 -3 -5 -11 -6 -19 -3 -8 3 -11 0 -7 -10 5 -13 -8 -19
-32 -14 -5 1 -7 -2 -2 -6 4 -4 -5 -20 -20 -36 -14 -15 -25 -29 -22 -31 4 -4
401 -253 499 -314 30 -19 93 -58 140 -88 47 -29 86 -52 88 -50 4 4 -936 1018
-947 1023 -4 1 -24 -17 -45 -40z"/>
<path d="M9470 5356 c0 -8 4 -17 9 -20 5 -4 7 3 4 14 -6 23 -13 26 -13 6z"/>
<path d="M6619 5261 c8 -5 10 -14 6 -22 -6 -11 -5 -11 5 -2 14 12 6 33 -13 33
-8 0 -7 -3 2 -9z"/>
<path d="M6587 5246 c-4 -10 -1 -13 8 -9 8 3 12 9 9 14 -7 12 -11 11 -17 -5z"/>
<path d="M6760 5239 c0 -5 5 -7 10 -4 6 3 10 8 10 11 0 2 -4 4 -10 4 -5 0 -10
-5 -10 -11z"/>
<path d="M7480 5231 c0 -10 19 -25 25 -20 1 2 -3 10 -11 17 -8 7 -14 8 -14 3z"/>
<path d="M6778 5198 c-14 -13 -22 -31 -20 -42 3 -12 0 -16 -8 -11 -7 5 -7 0 2
-14 16 -27 89 -71 117 -71 25 0 59 48 56 80 -1 14 2 33 6 42 13 24 -17 38 -80
38 -38 0 -55 -5 -73 -22z m152 -3 c0 -12 -19 -12 -23 0 -4 9 -1 12 9 8 7 -3
14 -7 14 -8z"/>
<path d="M7477 5199 c7 -7 15 -10 18 -7 3 3 -2 9 -12 12 -14 6 -15 5 -6 -5z"/>
<path d="M7051 5164 c0 -11 3 -14 6 -6 3 7 2 16 -1 19 -3 4 -6 -2 -5 -13z"/>
<path d="M7232 5044 c10 -10 20 -15 24 -12 3 4 -5 12 -18 18 -22 12 -22 12 -6
-6z"/>
<path d="M7097 5039 c7 -7 15 -10 18 -7 3 3 -2 9 -12 12 -14 6 -15 5 -6 -5z"/>
<path d="M7148 5023 c7 -3 16 -2 19 1 4 3 -2 6 -13 5 -11 0 -14 -3 -6 -6z"/>
<path d="M7208 5023 c7 -3 16 -2 19 1 4 3 -2 6 -13 5 -11 0 -14 -3 -6 -6z"/>
<path d="M6410 4820 c-6 -11 -7 -20 -2 -20 10 0 32 21 32 32 0 16 -19 8 -30
-12z"/>
<path d="M2180 3258 c-1 -7 -2 -118 -3 -246 -2 -200 0 -232 13 -232 13 -1 13
-2 0 -9 -13 -8 -15 -42 -12 -230 l3 -221 84 0 85 0 0 248 c0 217 -2 251 -17
272 -16 24 -16 24 0 11 16 -12 17 -9 17 33 0 25 3 46 8 46 4 0 18 -18 32 -39
13 -22 28 -37 34 -34 5 3 6 1 2 -5 -7 -12 8 -37 197 -342 l114 -185 97 -3 96
-3 1 441 c1 242 1 449 1 460 0 51 3 50 -87 50 l-85 0 0 -316 c0 -173 -3 -313
-8 -310 -4 2 -81 126 -172 274 -135 220 -169 269 -186 268 -14 -1 -20 -6 -16
-15 4 -10 1 -13 -9 -9 -10 4 -14 -2 -14 -22 0 -16 3 -26 7 -24 9 6 58 -37 58
-50 0 -6 -5 -4 -11 4 -9 13 -10 13 -6 0 2 -8 11 -15 19 -15 8 0 30 -15 49 -33
19 -19 27 -32 19 -30 -8 2 -18 8 -22 13 -5 6 -8 5 -8 -2 0 -17 -30 -16 -52 1
-20 15 -25 31 -6 20 7 -4 8 -3 4 5 -4 6 -12 9 -17 5 -11 -7 -71 54 -64 66 2 4
-5 7 -18 6 -19 -1 -22 -6 -22 -56 0 -54 -1 -55 -30 -58 l-30 -3 -2 98 c-1 58
2 102 9 110 7 8 7 13 0 13 -5 0 -9 14 -8 30 2 25 -1 30 -21 30 -13 0 -23 -6
-23 -12z m37 -420 c-3 -8 -6 -5 -6 6 -1 11 2 17 5 13 3 -3 4 -12 1 -19z m44
-31 c-10 -9 -11 -8 -5 6 3 10 9 15 12 12 3 -3 0 -11 -7 -18z m79 -17 c0 -5 -5
-10 -11 -10 -5 0 -7 5 -4 10 3 6 8 10 11 10 2 0 4 -4 4 -10z m-45 -18 c-3 -3
-11 0 -18 7 -9 10 -8 11 6 5 10 -3 15 -9 12 -12z m-83 -24 c-7 -7 -12 -8 -12
-2 0 14 12 26 19 19 2 -3 -1 -11 -7 -17z"/>
<path d="M2278 3263 c7 -3 12 -23 12 -49 0 -43 15 -59 27 -28 3 8 12 13 20 10
9 -4 11 -2 7 6 -5 7 -2 9 8 6 8 -4 21 -2 29 3 12 7 12 10 0 21 -9 8 -11 9 -7
1 3 -6 1 -15 -5 -19 -8 -4 -9 3 -4 25 l7 31 -54 -1 c-29 0 -47 -3 -40 -6z"/>
<path d="M4330 2795 l0 -475 95 0 95 0 0 209 c0 158 -3 211 -12 214 -10 4 -10
6 0 6 9 1 9 9 -3 37 -19 45 -19 57 0 24 13 -23 14 -16 15 83 0 104 -1 108 -24
117 -35 13 -41 29 -18 52 13 13 22 16 26 9 4 -6 2 -11 -3 -11 -6 0 -11 -5 -11
-11 0 -8 5 -8 15 1 11 9 15 32 15 80 0 54 -4 70 -20 85 -11 10 -22 26 -25 36
-5 16 -17 19 -76 19 l-69 0 0 -475z m65 455 c-14 -6 -16 -9 -5 -10 8 -2 18 -2
22 -1 4 0 5 -8 3 -19 -7 -34 -8 -167 -2 -177 3 -5 3 -19 0 -31 -4 -16 -13 -22
-35 -22 l-29 0 2 135 1 135 32 -1 c26 0 28 -2 11 -9z m-23 -425 c-6 -34 -12
-32 -12 6 0 16 4 28 9 25 4 -3 6 -17 3 -31z m8 -39 c0 -3 -4 -8 -10 -11 -5 -3
-10 -1 -10 4 0 6 5 11 10 11 6 0 10 -2 10 -4z"/>
<path d="M4365 3220 c3 -5 8 -10 11 -10 2 0 4 5 4 10 0 6 -5 10 -11 10 -5 0
-7 -4 -4 -10z"/>
<path d="M4388 3033 c7 -3 16 -2 19 1 4 3 -2 6 -13 5 -11 0 -14 -3 -6 -6z"/>
<path d="M4498 3233 c7 -3 16 -2 19 1 4 3 -2 6 -13 5 -11 0 -14 -3 -6 -6z"/>
<path d="M2237 3123 c-4 -3 -7 -11 -7 -17 0 -6 5 -5 12 2 6 6 9 14 7 17 -3 3
-9 2 -12 -2z"/>
<path d="M2251 3048 c-14 -23 -14 -23 8 -4 22 20 25 26 13 26 -4 0 -13 -10
-21 -22z"/>
<path d="M2261 3014 c0 -11 3 -14 6 -6 3 7 2 16 -1 19 -3 4 -6 -2 -5 -13z"/>
<path d="M2435 3019 c-4 -6 -5 -12 -2 -15 2 -3 7 2 10 11 7 17 1 20 -8 4z"/>
<path d="M3330 3004 c-58 -18 -133 -74 -165 -122 -50 -76 -68 -147 -62 -247
10 -157 82 -260 220 -311 75 -28 215 -26 280 3 66 30 150 113 178 176 21 44
24 68 24 162 0 94 -3 117 -24 163 -31 68 -113 144 -186 171 -67 25 -195 27
-265 5z m200 -146 c116 -59 135 -271 35 -368 -31 -30 -43 -35 -98 -38 -52 -3
-67 0 -96 20 -44 29 -68 71 -81 138 -14 76 4 162 44 208 56 64 121 77 196 40z"/>
<path d="M4990 3005 c-14 -7 -38 -20 -55 -28 -16 -8 -37 -24 -45 -36 -21 -31
-28 -26 -32 22 l-3 42 -77 3 c-69 3 -78 1 -79 -15 0 -10 -1 -49 -1 -88 -1 -66
0 -70 23 -73 38 -6 41 -17 12 -43 l-28 -24 25 28 25 29 -30 -4 c-16 -1 -29 -6
-27 -10 1 -5 2 -116 2 -248 l0 -240 90 0 90 0 0 223 c0 211 6 262 33 304 4 6
1 14 -5 17 -7 3 -3 3 8 1 12 -3 28 0 35 7 35 33 133 13 152 -30 7 -17 12 -121
15 -274 l4 -248 88 0 89 0 3 245 c2 165 7 248 14 253 6 4 16 17 22 28 16 30
93 49 137 34 52 -17 57 -45 63 -317 l4 -243 89 0 89 0 0 220 0 220 -25 12
c-14 6 -25 16 -25 22 0 6 5 5 12 -2 22 -22 40 -14 34 16 -3 15 -8 43 -11 62
-8 47 -48 103 -90 126 -29 15 -40 16 -67 7 -53 -19 -108 -26 -108 -15 0 6 6
13 13 15 6 3 -1 4 -18 2 -16 -1 -37 -3 -46 -4 -9 0 -38 -20 -64 -43 l-47 -42
-32 37 c-26 29 -43 38 -98 50 -38 8 -65 11 -62 6 3 -5 15 -9 27 -10 12 0 31
-4 42 -9 15 -7 12 -8 -15 -6 -19 2 -52 11 -72 20 -45 19 -47 19 -78 1z m207
-111 c-3 -3 -12 -4 -19 -1 -8 3 -5 6 6 6 11 1 17 -2 13 -5z m-10 -96 c-2 -18
-4 -6 -4 27 0 33 2 48 4 33 2 -15 2 -42 0 -60z m-342 62 c3 -6 -1 -7 -9 -4
-18 7 -21 14 -7 14 6 0 13 -4 16 -10z m415 -10 c0 -5 -2 -10 -4 -10 -3 0 -8 5
-11 10 -3 6 -1 10 4 10 6 0 11 -4 11 -10z m421 -9 c-6 -10 -7 -21 -4 -25 3 -3
1 -6 -5 -6 -7 0 -12 3 -12 6 0 9 20 44 26 44 2 0 0 -8 -5 -19z m-894 -33 c-3
-8 -6 -5 -6 6 -1 11 2 17 5 13 3 -3 4 -12 1 -19z m477 -30 c7 -5 5 -8 -6 -8
-14 0 -18 8 -17 33 2 27 2 28 6 7 3 -14 10 -28 17 -32z m289 22 c3 -11 1 -18
-4 -14 -5 3 -9 12 -9 20 0 20 7 17 13 -6z m74 -27 c-3 -10 -5 -4 -5 12 0 17 2
24 5 18 2 -7 2 -21 0 -30z"/>
<path d="M6038 3008 c-21 -5 -57 -27 -81 -48 -42 -37 -87 -114 -74 -127 13
-12 152 -31 156 -21 2 6 16 25 31 42 26 29 33 31 92 31 80 0 114 -20 124 -72
9 -48 -3 -56 -114 -78 -200 -40 -257 -66 -293 -136 -27 -54 -27 -133 0 -187
65 -127 250 -149 389 -45 l32 24 10 -26 c6 -15 10 -31 10 -36 0 -5 41 -9 91
-9 83 0 90 2 84 18 -23 57 -28 98 -31 297 -3 121 -9 236 -14 255 -13 47 -64
94 -123 114 -54 18 -227 20 -289 4z m250 -423 c-3 -36 -13 -76 -22 -90 -44
-67 -151 -88 -200 -39 -34 35 -36 91 -3 122 19 18 168 66 221 71 5 1 6 -28 4
-64z"/>
<path d="M6805 3008 c-77 -28 -142 -96 -172 -181 -25 -72 -25 -242 0 -314 23
-64 92 -144 150 -172 89 -43 216 -21 281 47 16 17 32 30 35 28 3 -2 4 -45 1
-95 -6 -112 -25 -138 -107 -148 -77 -9 -122 3 -141 37 -18 31 -31 35 -147 46
l-78 7 7 -39 c12 -64 49 -117 103 -146 134 -73 398 -53 476 36 67 75 76 151
74 581 l-2 310 -82 3 -83 3 0 -46 c0 -25 -4 -45 -8 -45 -5 0 -21 14 -38 31
-44 48 -98 69 -174 68 -36 0 -78 -5 -95 -11z m224 -146 c43 -31 62 -66 73
-133 21 -126 -25 -234 -112 -260 -74 -22 -145 13 -177 89 -17 42 -19 184 -3
227 35 92 145 131 219 77z"/>
<path d="M7605 2996 c-60 -28 -128 -99 -157 -164 -32 -73 -37 -238 -9 -315 52
-149 175 -228 335 -215 90 8 142 27 192 71 45 39 89 110 80 126 -6 8 -166 36
-170 29 -1 -2 -13 -20 -25 -40 -31 -52 -83 -68 -144 -44 -54 20 -72 39 -92 95
-26 76 -41 71 216 71 l232 0 -6 88 c-9 138 -58 229 -151 283 -54 31 -86 37
-86 17 0 -9 -4 -8 -10 2 -6 10 -10 11 -10 3 0 -7 -9 -13 -21 -13 -15 0 -19 5
-15 15 9 26 -99 20 -159 -9z m175 -105 c0 -5 15 -14 33 -20 40 -14 57 -39 64
-102 l6 -49 -137 0 -136 0 0 30 c0 63 42 113 112 135 53 17 58 17 58 6z m173
-66 c-3 -9 -8 -14 -10 -11 -3 3 -2 9 2 15 9 16 15 13 8 -4z m-20 -50 c-3 -9
-8 -14 -10 -11 -3 3 -2 9 2 15 9 16 15 13 8 -4z"/>
<path d="M2596 1802 c-5 -8 -45 -111 -170 -432 -41 -107 -102 -265 -136 -349
-33 -85 -60 -159 -60 -163 0 -4 43 -8 95 -8 109 0 100 -9 151 137 l29 83 68 0
c38 0 67 4 67 10 0 6 7 10 16 10 8 0 12 5 9 10 -4 6 -11 8 -16 5 -5 -4 -9 20
-9 54 0 54 2 61 20 61 11 0 20 -6 20 -12 0 -9 3 -8 10 2 6 10 10 -9 12 -60 l3
-75 95 -3 96 -3 12 -31 c10 -27 13 -29 28 -17 20 16 42 20 50 8 3 -5 10 -6 16
-3 6 4 9 1 6 -7 -3 -8 -14 -13 -24 -11 -16 2 -17 1 -4 -8 13 -9 13 -11 0 -19
-8 -5 -18 -7 -24 -4 -5 3 -6 1 -2 -5 3 -5 1 -12 -4 -14 -7 -2 -5 -20 5 -50 11
-32 23 -48 38 -51 42 -10 187 -8 187 2 0 21 -39 97 -59 115 -21 19 -30 43 -12
32 5 -4 7 3 4 15 -4 16 -8 17 -14 7 -6 -8 -9 0 -9 23 0 54 -25 107 -52 111
-17 2 -24 11 -26 32 -3 26 -2 28 12 17 13 -11 15 -10 12 6 -2 11 -12 37 -21
59 -16 39 -16 39 -33 18 -15 -19 -24 -21 -79 -15 -67 7 -73 3 -73 -45 0 -18
-4 -22 -17 -17 -10 3 -15 3 -11 -1 3 -4 12 -9 20 -10 45 -8 58 -18 54 -42 -3
-14 -1 -22 5 -19 5 4 7 10 4 15 -3 5 -1 11 5 15 5 3 10 2 10 -4 0 -6 7 -8 15
-5 8 4 15 1 15 -5 0 -6 6 -11 14 -11 8 0 18 -5 22 -12 5 -7 3 -8 -6 -3 -8 5
-11 4 -6 -3 4 -6 13 -9 21 -5 9 3 15 -1 15 -11 0 -9 4 -16 9 -16 11 0 11 -59
0 -66 -4 -2 -10 0 -14 5 -3 5 -14 8 -25 6 -15 -3 -20 2 -20 20 0 12 -7 26 -16
29 -8 3 -12 10 -9 16 3 6 -1 7 -9 4 -9 -3 -16 -1 -16 6 0 6 -4 9 -9 6 -10 -6
-67 20 -93 42 -21 18 -25 39 -5 26 7 -5 1 1 -13 13 -22 20 -36 23 -112 23 -49
0 -88 4 -88 9 0 21 123 340 129 336 4 -2 27 -57 51 -122 24 -65 45 -120 46
-122 2 -2 23 1 47 8 36 8 55 8 93 -4 27 -8 52 -15 55 -15 4 0 -37 109 -90 243
l-97 242 -101 3 c-56 1 -104 -1 -107 -6z"/>
<path d="M4740 1725 l0 -86 88 3 87 3 0 80 0 80 -87 3 -88 3 0 -86z"/>
<path d="M5112 1333 l3 -478 85 0 85 0 3 478 2 477 -90 0 -90 0 2 -477z"/>
<path d="M6220 1570 l0 -240 28 7 c49 13 152 -6 152 -28 0 -26 -25 -35 -86
-31 -55 4 -63 2 -73 -16 -16 -29 -4 -50 40 -73 22 -11 39 -22 39 -25 0 -8 -44
7 -51 18 -4 7 -9 7 -13 0 -8 -13 47 -32 74 -25 22 6 64 -23 54 -38 -3 -5 1 -6
9 -4 10 4 12 21 9 67 -3 33 1 84 7 114 25 108 132 159 224 106 43 -25 69 -85
75 -170 l5 -73 21 19 c35 32 58 40 114 38 l53 -1 -7 55 c-21 178 -134 291
-288 290 -65 -1 -114 -19 -165 -59 l-41 -33 0 171 0 171 -90 0 -90 0 0 -240z"/>
<path d="M7051 1483 c0 -181 3 -322 6 -315 2 6 11 12 19 12 8 0 14 4 14 10 0
5 17 14 39 21 29 9 43 8 61 -1 15 -8 20 -8 16 -1 -4 6 -3 11 3 11 5 0 12 -8
14 -17 3 -10 5 123 6 295 l1 312 -90 0 -90 0 1 -327z"/>
<path d="M4125 1543 c-27 -8 -65 -26 -83 -40 -31 -23 -89 -119 -78 -130 6 -6
123 -32 146 -33 8 0 21 13 28 29 16 37 63 56 127 54 68 -3 99 -28 103 -81 4
-47 13 -42 -168 -82 -129 -28 -194 -59 -216 -102 -9 -18 -13 -30 -9 -26 5 4
14 0 22 -10 7 -9 12 -12 11 -5 -2 6 20 32 47 57 45 41 55 46 95 45 25 -1 35
-4 23 -6 -13 -3 -20 -10 -17 -17 6 -15 -22 -29 -39 -19 -6 4 -8 0 -4 -10 4
-10 -4 -25 -23 -41 -17 -14 -30 -28 -30 -32 0 -3 14 -22 30 -41 l30 -34 0 36
c0 55 33 78 150 108 l100 25 0 -62 c0 -44 -6 -70 -20 -94 -25 -40 -99 -77
-137 -67 -19 4 -24 3 -20 -8 6 -16 -61 -21 -80 -5 -16 13 -17 48 -2 48 6 0 8
-7 4 -17 -5 -15 -4 -16 6 -5 11 10 11 14 0 25 -10 10 -15 8 -27 -7 -13 -18
-19 -15 -14 9 1 5 -2 7 -6 2 -11 -10 -74 53 -74 74 0 10 -3 20 -7 22 -5 3 -7
-29 -5 -70 2 -50 -1 -80 -10 -90 -11 -13 -7 -21 26 -49 87 -75 235 -72 348 7
34 25 35 25 48 -16 l12 -35 84 0 c46 0 84 4 84 9 0 5 -5 22 -12 38 -7 18 -14
119 -17 278 -5 225 -8 253 -26 283 -25 41 -81 79 -137 92 -63 14 -206 11 -263
-7z"/>
<path d="M5612 1541 c-29 -10 -67 -31 -83 -47 -32 -30 -69 -93 -69 -117 0 -18
152 -45 158 -27 19 57 98 87 178 67 44 -11 50 -16 62 -51 21 -66 23 -65 -180
-111 -80 -18 -130 -35 -160 -55 -67 -44 -100 -130 -79 -207 26 -95 109 -153
219 -153 70 0 111 13 170 51 24 16 45 29 47 29 3 0 11 -16 20 -36 l14 -35 86
2 c47 2 85 3 85 3 0 1 -9 24 -20 53 -17 46 -20 78 -20 270 -1 129 -6 234 -12
256 -14 48 -67 93 -132 112 -70 21 -218 19 -284 -4z m254 -423 c-10 -91 -36
-126 -109 -148 -67 -20 -130 14 -143 77 -5 24 0 37 23 62 22 24 45 35 108 50
44 10 91 19 104 20 23 1 23 0 17 -61z"/>
<path d="M7591 1548 c-97 -27 -204 -147 -196 -218 2 -14 4 -64 4 -112 1 -71 4
-88 16 -88 11 0 12 -5 5 -25 -13 -35 -5 -31 14 5 8 17 10 27 4 24 -23 -14 -1
14 38 49 43 39 54 44 54 26 0 -5 -4 -8 -9 -5 -5 4 -8 -2 -7 -11 4 -24 21 -27
37 -6 13 16 12 17 -4 4 -23 -18 -29 -11 -12 13 8 10 18 15 24 11 12 -7 15 -35
4 -35 -13 0 -89 -74 -96 -93 -3 -9 -3 -16 1 -14 4 1 20 -8 36 -21 16 -12 25
-22 21 -22 -4 0 4 -9 19 -21 23 -18 25 -23 14 -38 -12 -14 -11 -15 5 -2 9 8
19 12 20 10 1 -2 9 -12 16 -21 12 -16 10 -18 -23 -18 -30 0 -45 9 -98 60 -35
33 -67 60 -72 60 -16 0 4 -63 34 -103 59 -80 143 -117 269 -117 85 0 155 25
208 73 43 40 90 113 79 124 -5 6 -136 31 -163 32 -7 1 -13 -6 -13 -14 0 -8
-13 -29 -29 -47 -26 -29 -35 -33 -83 -33 -83 0 -140 54 -150 140 l-3 30 233 3
233 2 -7 63 c-13 135 -54 227 -125 285 -66 53 -206 77 -298 50z m200 -164 c16
-15 31 -41 34 -58 4 -17 9 -39 11 -48 5 -17 -6 -18 -135 -18 l-141 0 0 25 c0
34 23 86 47 107 25 23 91 37 127 26 16 -4 42 -20 57 -34z"/>
<path d="M3160 1538 c0 -20 142 -361 157 -376 13 -13 15 -13 11 -2 -9 28 46
60 104 60 25 0 29 3 23 18 -4 9 -13 37 -22 62 -8 25 -33 91 -55 147 l-39 102
-90 -1 c-49 -1 -89 -5 -89 -10z"/>
<path d="M3693 1542 c-16 -10 -143 -352 -141 -379 1 -12 5 -20 10 -17 11 7 21
-61 13 -98 -8 -35 -38 -71 -50 -60 -4 4 -6 0 -3 -8 6 -19 -41 -40 -88 -40 -39
0 -40 -3 -15 -49 18 -34 19 -35 97 -38 l79 -4 26 67 c22 58 24 71 14 93 -17
36 -27 103 -14 95 6 -3 10 0 8 7 -5 37 30 80 81 101 33 14 38 24 93 164 31 82
57 155 57 162 0 13 -146 18 -167 4z"/>
<path d="M4740 1200 l0 -351 88 3 87 3 0 345 0 345 -87 3 -88 3 0 -351z"/>
<path d="M2840 1326 c0 -2 7 -6 15 -10 8 -3 15 -1 15 4 0 6 -7 10 -15 10 -8 0
-15 -2 -15 -4z"/>
<path d="M6278 1323 c7 -3 16 -2 19 1 4 3 -2 6 -13 5 -11 0 -14 -3 -6 -6z"/>
<path d="M2898 1313 c7 -3 16 -2 19 1 4 3 -2 6 -13 5 -11 0 -14 -3 -6 -6z"/>
<path d="M6230 1310 c0 -5 7 -7 15 -4 8 4 15 8 15 10 0 2 -7 4 -15 4 -8 0 -15
-4 -15 -10z"/>
<path d="M2817 1294 c3 -9 9 -12 12 -7 3 4 10 11 15 16 5 4 0 7 -12 7 -15 0
-20 -4 -15 -16z"/>
<path d="M6278 1303 c7 -3 16 -2 19 1 4 3 -2 6 -13 5 -11 0 -14 -3 -6 -6z"/>
<path d="M2868 1293 c6 -2 18 -2 25 0 6 3 1 5 -13 5 -14 0 -19 -2 -12 -5z"/>
<path d="M7383 1225 c0 -22 2 -30 4 -17 2 12 2 30 0 40 -3 9 -5 -1 -4 -23z"/>
<path d="M2653 1165 c0 -27 2 -38 4 -22 2 15 2 37 0 50 -2 12 -4 0 -4 -28z"/>
<path d="M3450 1201 c11 -8 12 -11 2 -11 -7 0 -10 -4 -7 -10 10 -16 23 -12 21
7 -2 9 -9 19 -17 21 -11 3 -11 1 1 -7z"/>
<path d="M3710 1200 c-9 -6 -10 -10 -3 -10 6 0 15 5 18 10 8 12 4 12 -15 0z"/>
<path d="M6825 1200 c-3 -5 -2 -10 4 -10 5 0 13 5 16 10 3 6 2 10 -4 10 -5 0
-13 -4 -16 -10z"/>
<path d="M2835 1180 c3 -5 8 -10 11 -10 2 0 4 5 4 10 0 6 -5 10 -11 10 -5 0
-7 -4 -4 -10z"/>
<path d="M4066 1169 c-19 -19 -19 -20 -2 -37 18 -16 18 -16 8 2 -8 16 -5 23
12 37 11 10 17 18 11 18 -5 0 -19 -9 -29 -20z"/>
<path d="M6747 1172 c-19 -21 -22 -42 -6 -42 5 0 7 5 4 10 -3 6 1 18 10 27 14
14 18 14 26 2 13 -20 11 -32 -4 -26 -7 3 -14 -3 -15 -14 -6 -43 -5 -75 2 -90
4 -10 1 -23 -9 -32 -8 -9 -11 -18 -6 -22 5 -3 12 4 16 15 9 28 28 25 21 -2 -3
-13 -3 -17 0 -10 8 17 34 15 34 -4 0 -8 5 -12 10 -9 6 4 8 10 5 15 -3 4 4 10
14 13 26 7 55 137 33 151 -5 3 -27 6 -50 7 -23 2 -44 9 -46 16 -7 18 -20 16
-39 -5z"/>
<path d="M6828 1173 c6 -2 18 -2 25 0 6 3 1 5 -13 5 -14 0 -19 -2 -12 -5z"/>
<path d="M7128 1173 c7 -3 16 -2 19 1 4 3 -2 6 -13 5 -11 0 -14 -3 -6 -6z"/>
<path d="M7480 1166 c0 -2 7 -7 16 -10 8 -3 12 -2 9 4 -6 10 -25 14 -25 6z"/>
<path d="M3367 1140 c-22 -17 -25 -26 -20 -53 9 -47 40 -104 60 -111 15 -5 15
-4 -2 10 -20 15 -20 16 5 14 14 -1 33 -2 43 -1 20 1 77 56 77 74 0 6 -3 7 -7
3 -4 -3 -16 13 -27 36 -19 39 -25 43 -62 46 -29 2 -47 -3 -67 -18z"/>
<path d="M4085 1150 c-3 -6 1 -7 9 -4 18 7 21 14 7 14 -6 0 -13 -4 -16 -10z"/>
<path d="M6233 1153 c-17 -6 -18 -129 -1 -139 7 -4 28 -11 48 -14 21 -4 34
-11 32 -19 -1 -7 2 -9 8 -6 6 4 9 10 6 13 -3 3 1 13 10 23 19 21 15 79 -6 90
-8 5 -33 16 -55 24 -31 13 -36 18 -25 25 16 10 4 12 -17 3z"/>
<path d="M7115 1135 c-25 -24 -30 -50 -19 -92 9 -32 78 -55 117 -38 24 10 25
140 1 149 -34 13 -75 6 -99 -19z"/>
<path d="M2905 1140 c3 -5 8 -10 11 -10 2 0 4 5 4 10 0 6 -5 10 -11 10 -5 0
-7 -4 -4 -10z"/>
<path d="M3677 1136 c-4 -10 -3 -15 3 -11 6 3 10 2 10 -4 0 -5 -6 -11 -12 -14
-10 -3 -10 -7 -1 -17 8 -9 12 -7 18 9 3 11 2 28 -3 37 -8 15 -10 15 -15 0z"/>
<path d="M6343 1128 c-1 -11 1 -16 5 -12 4 5 11 12 15 15 5 3 2 9 -5 12 -9 3
-14 -3 -15 -15z"/>
<path d="M2681 1104 c0 -11 3 -14 6 -6 3 7 2 16 -1 19 -3 4 -6 -2 -5 -13z"/>
<path d="M2937 1113 c-2 -4 5 -17 16 -28 l20 -20 -13 25 c-16 32 -17 33 -23
23z"/>
<path d="M4021 1104 c0 -11 3 -14 6 -6 3 7 2 16 -1 19 -3 4 -6 -2 -5 -13z"/>
<path d="M7062 1080 c0 -14 2 -19 5 -12 2 6 2 18 0 25 -3 6 -5 1 -5 -13z"/>
<path d="M2985 1079 c-4 -6 -5 -12 -2 -15 2 -3 7 2 10 11 7 17 1 20 -8 4z"/>
<path d="M3960 1081 c0 -5 -2 -15 -5 -23 -3 -7 2 -22 10 -33 16 -20 16 -20 6
1 -5 11 -7 30 -4 42 3 12 3 22 -1 22 -3 0 -6 -4 -6 -9z"/>
<path d="M7430 1071 c0 -5 7 -15 17 -22 15 -13 15 -12 4 9 -12 23 -21 28 -21
13z"/>
<path d="M6360 1056 c0 -8 4 -17 9 -20 5 -4 7 3 4 14 -6 23 -13 26 -13 6z"/>
<path d="M6710 1061 c0 -7 -6 -11 -12 -9 -15 5 -70 -60 -62 -73 3 -5 7 -9 10
-9 3 0 2 5 -1 10 -3 6 -1 10 4 10 13 0 14 -20 3 -36 -4 -7 -25 -11 -48 -10
-41 2 -84 28 -151 90 -18 16 -34 27 -34 23 -1 -4 -3 -11 -4 -17 -1 -5 -3 -16
-4 -24 -2 -21 -31 -47 -43 -40 -7 4 -8 2 -4 -4 11 -18 -42 -34 -97 -29 l-48 5
3 -47 3 -46 60 -3 c95 -5 105 0 105 55 l0 47 38 -36 c99 -97 248 -101 359 -11
25 21 34 54 16 60 -7 3 -13 0 -13 -7 0 -6 5 -8 12 -4 7 4 8 3 4 -5 -11 -17
-61 15 -95 58 -14 19 -21 32 -15 28 12 -7 29 21 19 31 -3 3 -5 0 -5 -7z"/>
<path d="M4045 1034 c18 -14 40 -13 40 1 0 5 -13 10 -28 10 -25 1 -26 -1 -12
-11z"/>
<path d="M3517 1023 c-11 -11 -8 -20 7 -20 8 0 12 6 9 14 -6 15 -7 15 -16 6z"/>
<path d="M4140 981 c0 -5 7 -12 16 -15 14 -5 15 -4 4 9 -14 17 -20 19 -20 6z"/>
<path d="M7050 920 l0 -70 90 0 90 0 -1 58 c0 31 -3 51 -6 45 -2 -7 -9 -13
-14 -13 -4 0 -6 6 -3 14 3 8 1 17 -5 21 -7 3 -8 0 -5 -9 4 -10 -1 -18 -10 -22
-19 -7 -106 15 -106 26 0 4 -7 10 -15 14 -12 4 -15 -6 -15 -64z"/>
<path d="M7130 980 c8 -5 20 -10 25 -10 6 0 3 5 -5 10 -8 5 -19 10 -25 10 -5
0 -3 -5 5 -10z"/>
</g>
</svg>
